<svg width="12" height="16" viewBox="0 0 12 16" fill="none" xmlns="http://www.w3.org/2000/svg">
<g id="file-chart-pie" clip-path="url(#clip0_5033_7205)">
<path id="Secondary" d="M0 2C0 0.896875 0.896875 0 2 0H7V4C7 4.55312 7.44688 5 8 5H12V14C12 15.1031 11.1031 16 10 16H2C0.896875 16 0 15.1031 0 14V2ZM2 10.25C2 12.3219 3.67812 14 5.75 14C7.35 14 8.71562 12.9969 9.25313 11.5875C9.36563 11.2906 9.12813 11 8.8125 11C7.70937 11 6.60313 11 5.5 11C5.225 11 5 10.775 5 10.5V7.1875C5 6.87187 4.70937 6.63437 4.4125 6.74687C3.00312 7.28437 2 8.65 2 10.25ZM6 6.75V9.5C6 9.775 6.225 10 6.5 10H9.25C9.525 10 9.75313 9.775 9.71562 9.5C9.49375 7.82812 8.16875 6.50313 6.49687 6.28125C6.22187 6.24375 5.99687 6.47187 5.99687 6.74687L6 6.75Z" fill="#65BCFF"/>
<path id="Primary" d="M12 5H8C7.44688 5 7 4.55312 7 4V0L12 5ZM4.4125 6.74687C4.70937 6.63437 5 6.87187 5 7.1875V10.5C5 10.775 5.225 11 5.5 11H8.8125C9.12813 11 9.36563 11.2906 9.25313 11.5875C8.71563 12.9969 7.35 14 5.75 14C3.67812 14 2 12.3219 2 10.25C2 8.65 3.00312 7.28437 4.4125 6.74687Z" fill="#FCFCFC"/>
</g>
<defs>
<clipPath id="clip0_5033_7205">
<rect width="12" height="16" fill="white"/>
</clipPath>
</defs>
</svg>
