<svg width="18" height="16" viewBox="0 0 18 16" fill="none" xmlns="http://www.w3.org/2000/svg">
<g id="folder-open">
<path id="Secondary" d="M0 3V14C0 13.825 0.046875 13.6531 0.1375 13.4969L3.6375 7.49687C3.81562 7.1875 4.14375 7 4.5 7H15V5C15 3.89687 14.1031 3 13 3H9.32812C8.79688 3 8.2875 2.79063 7.9125 2.41563L7.08437 1.58438C6.70937 1.20938 6.2 1 5.66875 1H2C0.896875 1 0 1.89688 0 3ZM0.075 14.3781C0.084375 14.4 0.09375 14.4187 0.103125 14.4375C0.1125 14.4563 0.121875 14.4781 0.134375 14.4969C0.1125 14.4594 0.09375 14.4187 0.075 14.3781ZM14.4187 14.4094C14.6562 14.1719 14.8344 13.8719 14.925 13.5375L14.4187 14.4094Z" fill="#65BCFF"/>
<path id="Primary" d="M4.49981 7C4.14356 7 3.81543 7.1875 3.63731 7.49687L0.137307 13.4969C-0.0439428 13.8062 -0.0439428 14.1875 0.134182 14.5C0.312307 14.8125 0.640432 15 0.999807 15H13.4998C13.8561 15 14.1842 14.8125 14.3623 14.5031L17.8623 8.50313C18.0436 8.19375 18.0436 7.8125 17.8654 7.5C17.6873 7.1875 17.3592 7 16.9998 7H4.49981Z" fill="#FCFCFC"/>
</g>
</svg>
