<svg width="16" height="16" viewBox="0 0 16 16" fill="none" xmlns="http://www.w3.org/2000/svg">
<g id="inbox">
<path id="Secondary" d="M2.28125 9H3.88125C4.25937 9 4.60625 9.2125 4.775 9.55313C4.925 9.85 5.07188 10.15 5.22188 10.4469C5.39063 10.7844 5.7375 11 6.11562 11H9.87813C10.2563 11 10.6031 10.7875 10.7719 10.4469L11.2188 9.55313C11.3875 9.21563 11.7344 9 12.1125 9H13.7125L12.2188 3H3.78125C3.28125 5 2.78125 7 2.28125 9Z" fill="#FCFCFC"/>
<path id="Primary" d="M3.78125 1C2.8625 1 2.0625 1.625 1.84063 2.51562L0.059375 9.6375C0.01875 9.79688 0 9.95937 0 10.1219V13C0 14.1031 0.896875 15 2 15H14C15.1031 15 16 14.1031 16 13V10.1219C16 9.95937 15.9812 9.79688 15.9406 9.6375L14.1594 2.51562C13.9375 1.625 13.1375 1 12.2188 1H3.78125ZM3.78125 3H12.2188L13.7188 9H12.1187C11.7406 9 11.3938 9.2125 11.225 9.55313L10.7781 10.4469C10.6094 10.7844 10.2625 11 9.88437 11H6.12187C5.74375 11 5.39687 10.7875 5.22813 10.4469L4.78125 9.55313C4.6125 9.21563 4.26562 9 3.8875 9H2.28125L3.78125 3Z" fill="#65BCFF"/>
</g>
</svg>
