<svg width="18" height="16" viewBox="0 0 18 16" fill="none" xmlns="http://www.w3.org/2000/svg">
<g id="id-card-clip" clip-path="url(#clip0_5033_7566)">
<path id="Secondary" d="M2 2H7V4H6.5C6.225 4 6 4.225 6 4.5C6 4.775 6.225 5 6.5 5H11.5C11.775 5 12 4.775 12 4.5C12 4.225 11.775 4 11.5 4H11V2H16C17.1031 2 18 2.89688 18 4V14C18 15.1031 17.1031 16 16 16H2C0.896875 16 0 15.1031 0 14V4C0 2.89688 0.896875 2 2 2ZM5.5 13.6656C5.5 13.85 5.65 14 5.83437 14H12.1656C12.35 14 12.5 13.85 12.5 13.6656C12.5 12.7437 11.7531 12 10.8344 12H7.16563C6.24375 12 5.5 12.7469 5.5 13.6656ZM9 11C9.53043 11 10.0391 10.7893 10.4142 10.4142C10.7893 10.0391 11 9.53043 11 9C11 8.46957 10.7893 7.96086 10.4142 7.58579C10.0391 7.21071 9.53043 7 9 7C8.46957 7 7.96086 7.21071 7.58579 7.58579C7.21071 7.96086 7 8.46957 7 9C7 9.53043 7.21071 10.0391 7.58579 10.4142C7.96086 10.7893 8.46957 11 9 11Z" fill="#65BCFF"/>
<path id="Primary" d="M8 0C7.44687 0 7 0.446875 7 1V4H11V1C11 0.446875 10.5531 0 10 0H8ZM11 9C11 8.46957 10.7893 7.96086 10.4142 7.58579C10.0391 7.21071 9.53043 7 9 7C8.46957 7 7.96086 7.21071 7.58579 7.58579C7.21071 7.96086 7 8.46957 7 9C7 9.53043 7.21071 10.0391 7.58579 10.4142C7.96086 10.7893 8.46957 11 9 11C9.53043 11 10.0391 10.7893 10.4142 10.4142C10.7893 10.0391 11 9.53043 11 9ZM5.5 13.6656C5.5 13.85 5.65 14 5.83437 14H12.1656C12.35 14 12.5 13.85 12.5 13.6656C12.5 12.7437 11.7531 12 10.8344 12H7.16563C6.24375 12 5.5 12.7469 5.5 13.6656Z" fill="#FCFCFC"/>
</g>
<defs>
<clipPath id="clip0_5033_7566">
<rect width="18" height="16" fill="white"/>
</clipPath>
</defs>
</svg>
