<svg width="20" height="16" viewBox="0 0 20 16" fill="none" xmlns="http://www.w3.org/2000/svg">
<g id="users-medical" clip-path="url(#clip0_5033_6880)">
<path id="Secondary" d="M2 2.5C2 1.83696 2.26339 1.20107 2.73223 0.732233C3.20107 0.263392 3.83696 0 4.5 0C5.16304 0 5.79893 0.263392 6.26777 0.732233C6.73661 1.20107 7 1.83696 7 2.5C7 3.16304 6.73661 3.79893 6.26777 4.26777C5.79893 4.73661 5.16304 5 4.5 5C3.83696 5 3.20107 4.73661 2.73223 4.26777C2.26339 3.79893 2 3.16304 2 2.5ZM13.5 2.5C13.5 1.83696 13.7634 1.20107 14.2322 0.732233C14.7011 0.263392 15.337 0 16 0C16.663 0 17.2989 0.263392 17.7678 0.732233C18.2366 1.20107 18.5 1.83696 18.5 2.5C18.5 3.16304 18.2366 3.79893 17.7678 4.26777C17.2989 4.73661 16.663 5 16 5C15.337 5 14.7011 4.73661 14.2322 4.26777C13.7634 3.79893 13.5 3.16304 13.5 2.5ZM3.33437 6H4.66875C5.16562 6 5.6375 6.10938 6.0625 6.30312C6.02187 6.52812 6.00313 6.7625 6.00313 7C6.00313 8.19375 6.52812 9.26562 7.35625 10C7.35 10 7.34375 10 7.33437 10H0.665625C0.3 10 0 9.7 0 9.33438C0 7.49375 1.49375 6 3.33437 6ZM12.6469 10C13.4781 9.26562 14 8.19375 14 7C14 6.7625 13.9781 6.53125 13.9406 6.30312C14.3656 6.10625 14.8375 6 15.3344 6H16.6688C18.5063 6 20 7.49375 20 9.33438C20 9.70312 19.7 10 19.3344 10H18.9156C18.7094 9.41875 18.1531 9 17.5 9H16.5C15.8469 9 15.2906 9.41875 15.0844 10H12.6656C12.6594 10 12.6531 10 12.6438 10H12.6469ZM13.5281 11.3594C13.2031 11.6344 13 12.0437 13 12.5V13.5C13 14.3281 13.6719 15 14.5 15H15V15.5C15 15.675 15.0312 15.8438 15.0844 16H4.83437C4.375 16 4 15.6281 4 15.1656C4 12.8656 5.86562 11 8.16562 11H11.8344C12.4375 11 13.0094 11.1281 13.5281 11.3594ZM10 4C10.394 4 10.7841 4.0776 11.1481 4.22836C11.512 4.37913 11.8427 4.6001 12.1213 4.87868C12.3999 5.15726 12.6209 5.48797 12.7716 5.85195C12.9224 6.21593 13 6.60603 13 7C13 7.39397 12.9224 7.78407 12.7716 8.14805C12.6209 8.51203 12.3999 8.84274 12.1213 9.12132C11.8427 9.3999 11.512 9.62087 11.1481 9.77164C10.7841 9.9224 10.394 10 10 10C9.60603 10 9.21593 9.9224 8.85195 9.77164C8.48797 9.62087 8.15726 9.3999 7.87868 9.12132C7.6001 8.84274 7.37913 8.51203 7.22836 8.14805C7.0776 7.78407 7 7.39397 7 7C7 6.60603 7.0776 6.21593 7.22836 5.85195C7.37913 5.48797 7.6001 5.15726 7.87868 4.87868C8.15726 4.6001 8.48797 4.37913 8.85195 4.22836C9.21593 4.0776 9.60603 4 10 4Z" fill="#65BCFF"/>
<path id="Primary" d="M16.5 10C16.225 10 16 10.225 16 10.5V12H14.5C14.225 12 14 12.225 14 12.5V13.5C14 13.775 14.225 14 14.5 14H16V15.5C16 15.775 16.225 16 16.5 16H17.5C17.775 16 18 15.775 18 15.5V14H19.5C19.775 14 20 13.775 20 13.5V12.5C20 12.225 19.775 12 19.5 12H18V10.5C18 10.225 17.775 10 17.5 10H16.5Z" fill="#FCFCFC"/>
</g>
<defs>
<clipPath id="clip0_5033_6880">
<rect width="20" height="16" fill="white"/>
</clipPath>
</defs>
</svg>
