<svg width="16" height="16" viewBox="0 0 16 16" fill="none" xmlns="http://www.w3.org/2000/svg">
<g id="envelope-open-text" clip-path="url(#clip0_5040_19795)">
<path id="Secondary" d="M3 1C2.44687 1 2 1.44687 2 2V7.80312L7.39687 11.8C7.57188 11.9281 7.78438 12 8 12C8.21562 12 8.42812 11.9313 8.60312 11.8L14 7.80312V2C14 1.44687 13.5531 1 13 1H3ZM5.5 4H10.5C10.775 4 11 4.225 11 4.5C11 4.775 10.775 5 10.5 5H5.5C5.225 5 5 4.775 5 4.5C5 4.225 5.225 4 5.5 4ZM5.5 6H10.5C10.775 6 11 6.225 11 6.5C11 6.775 10.775 7 10.5 7H5.5C5.225 7 5 6.775 5 6.5C5 6.225 5.225 6 5.5 6Z" fill="#FCFCFC"/>
<path id="Primary" d="M15.9937 6.32812C15.9437 5.7625 15.6531 5.2375 15.1906 4.89687L14 4.01562V6.50313V7.80312L15.9937 6.32812ZM16 14V7.56563L9.2 12.6031C8.85312 12.8625 8.43125 13 8 13C7.56875 13 7.14688 12.8625 6.8 12.6031L0 7.56563V14C0 15.1031 0.896875 16 2 16H14C15.1031 16 16 15.1031 16 14ZM2 7.80312V6.50313V4.01562L0.809375 4.89687C0.346875 5.2375 0.05625 5.7625 0.00625 6.32812L2 7.80312ZM9.04688 0.346875C8.74375 0.121875 8.37813 0 8 0C7.62187 0 7.25625 0.121875 6.95312 0.34375L6.06875 1H9.93125L9.04688 0.346875ZM5.5 4C5.225 4 5 4.225 5 4.5C5 4.775 5.225 5 5.5 5H10.5C10.775 5 11 4.775 11 4.5C11 4.225 10.775 4 10.5 4H5.5ZM5.5 6C5.225 6 5 6.225 5 6.5C5 6.775 5.225 7 5.5 7H10.5C10.775 7 11 6.775 11 6.5C11 6.225 10.775 6 10.5 6H5.5Z" fill="#65BCFF"/>
</g>
<defs>
<clipPath id="clip0_5040_19795">
<rect width="16" height="16" fill="white"/>
</clipPath>
</defs>
</svg>
