<svg width="16" height="16" viewBox="0 0 16 16" fill="none" xmlns="http://www.w3.org/2000/svg">
<g id="gear-code" clip-path="url(#clip0_5040_19840)">
<path id="Secondary" d="M15.4969 5.20625C15.5969 5.47813 15.5125 5.78125 15.2969 5.975L14.3312 6.85313C14.0906 7.075 13.975 7.4 13.9906 7.725C13.9937 7.81562 13.9969 7.90625 13.9969 8C13.9969 8.09375 13.9937 8.18437 13.9906 8.275C13.975 8.60312 14.0875 8.92813 14.3312 9.14688L15.2969 10.025C15.5125 10.2188 15.5969 10.5219 15.4969 10.7937C15.3594 11.1656 15.1937 11.5219 15.0031 11.8656L14.8562 12.1187C14.65 12.4625 14.4187 12.7875 14.1656 13.0938C13.9812 13.3188 13.675 13.3937 13.4 13.3062L12.1594 12.9125C11.8469 12.8125 11.5094 12.8781 11.2312 13.0562C11.0781 13.1531 10.9219 13.2469 10.7594 13.3281C10.4687 13.4781 10.2437 13.7406 10.1719 14.0594L9.89375 15.3313C9.83125 15.6156 9.6125 15.8406 9.325 15.8875C8.89375 15.9594 8.45 15.9969 7.99687 15.9969C7.54375 15.9969 7.1 15.9594 6.66875 15.8875C6.38125 15.8406 6.1625 15.6156 6.1 15.3313L5.82187 14.0594C5.75312 13.7406 5.525 13.4781 5.23437 13.3281C5.07187 13.2437 4.91562 13.1531 4.7625 13.0562C4.4875 12.8781 4.14687 12.8125 3.83437 12.9125L2.59687 13.3094C2.32187 13.3969 2.01562 13.3188 1.83125 13.0969C1.57812 12.7906 1.34687 12.4656 1.14062 12.1219L0.993746 11.8687C0.803121 11.525 0.637496 11.1687 0.499996 10.7969C0.399996 10.525 0.484371 10.2219 0.699996 10.0281L1.66562 9.15C1.90625 8.92812 2.02187 8.60312 2.00625 8.27812C2.00312 8.1875 2 8.09688 2 8.00313C2 7.90938 2.00312 7.81875 2.00625 7.72813C2.02187 7.4 1.90937 7.075 1.66562 6.85625L0.699996 5.975C0.484371 5.78125 0.399996 5.47813 0.499996 5.20625C0.637496 4.83438 0.803121 4.47813 0.993746 4.13438L1.14062 3.88125C1.34687 3.5375 1.57812 3.2125 1.83125 2.90625C2.01562 2.68125 2.32187 2.60625 2.59687 2.69375L3.8375 3.0875C4.15 3.1875 4.4875 3.12187 4.76562 2.94375C4.91875 2.84687 5.075 2.75312 5.2375 2.67188C5.52812 2.52187 5.75312 2.25937 5.825 1.94062L6.10312 0.66875C6.16562 0.384375 6.38437 0.159375 6.67187 0.1125C7.10312 0.0375 7.54687 0 8 0C8.45312 0 8.89687 0.0375 9.32812 0.109375C9.61562 0.15625 9.83437 0.38125 9.89687 0.665625L10.175 1.9375C10.2437 2.25625 10.4687 2.51875 10.7625 2.66875C10.925 2.75312 11.0812 2.84375 11.2344 2.94062C11.5094 3.11875 11.85 3.18125 12.1625 3.08437L13.4031 2.69062C13.6781 2.60312 13.9844 2.68125 14.1687 2.90313C14.4219 3.20938 14.6531 3.53437 14.8594 3.87812L15.0062 4.13125C15.1969 4.475 15.3625 4.83125 15.5 5.20312L15.4969 5.20625ZM8.99062 5.08437C9.0375 4.8125 8.85312 4.55312 8.57812 4.50938C8.30312 4.46563 8.04687 4.64687 8.00312 4.92188L7.00312 10.9219C6.95625 11.1938 7.14062 11.4531 7.41562 11.4969C7.69062 11.5406 7.94687 11.3594 7.99062 11.0844L8.99062 5.08437ZM5.85312 7.10313C6.04687 6.90938 6.04687 6.59062 5.85312 6.39687C5.65937 6.20312 5.34062 6.20312 5.14687 6.39687L3.89687 7.64687C3.70312 7.84062 3.70312 8.15937 3.89687 8.35312L5.14687 9.60312C5.34062 9.79688 5.65937 9.79688 5.85312 9.60312C6.04687 9.40937 6.04687 9.09063 5.85312 8.89688L4.95625 8L5.85312 7.10313ZM10.8531 6.39687C10.6594 6.20312 10.3406 6.20312 10.1469 6.39687C9.95312 6.59062 9.95312 6.90938 10.1469 7.10313L11.0437 8L10.1469 8.89688C9.95312 9.09063 9.95312 9.40937 10.1469 9.60312C10.3406 9.79688 10.6594 9.79688 10.8531 9.60312L12.1031 8.35312C12.2969 8.15937 12.2969 7.84062 12.1031 7.64687L10.8531 6.39687Z" fill="#FCFCFC"/>
<path id="Primary" d="M8.58127 4.50625C8.85315 4.55312 9.03752 4.80937 8.99377 5.08125L7.99377 11.0812C7.9469 11.3531 7.69065 11.5375 7.41877 11.4937C7.1469 11.45 6.96252 11.1906 7.00627 10.9187L8.00627 4.91875C8.05315 4.64687 8.3094 4.4625 8.58127 4.50625ZM5.85315 6.39687C6.0469 6.59062 6.0469 6.90937 5.85315 7.10312L4.95627 8L5.85315 8.89687C6.0469 9.09062 6.0469 9.40937 5.85315 9.60312C5.6594 9.79687 5.34065 9.79687 5.1469 9.60312L3.8969 8.35312C3.70315 8.15937 3.70315 7.84062 3.8969 7.64687L5.1469 6.39687C5.34065 6.20312 5.6594 6.20312 5.85315 6.39687ZM10.1469 6.39687C10.3406 6.20312 10.6594 6.20312 10.8531 6.39687L12.1031 7.64687C12.2969 7.84062 12.2969 8.15937 12.1031 8.35312L10.8531 9.60312C10.6594 9.79687 10.3406 9.79687 10.1469 9.60312C9.95315 9.40937 9.95315 9.09062 10.1469 8.89687L11.0438 8L10.1469 7.10312C9.95315 6.90937 9.95315 6.59062 10.1469 6.39687Z" fill="#65BCFF"/>
</g>
<defs>
<clipPath id="clip0_5040_19840">
<rect width="16" height="16" fill="white"/>
</clipPath>
</defs>
</svg>
