<svg width="20" height="16" viewBox="0 0 20 16" fill="none" xmlns="http://www.w3.org/2000/svg">
<g id="link" clip-path="url(#clip0_5040_19787)">
<path id="Secondary" d="M18.1187 1.975C19.8844 3.74063 19.8844 6.6 18.1187 8.36563L14.6094 11.875C12.8437 13.6406 9.98437 13.6406 8.21874 11.875C6.65624 10.3125 6.45312 7.85 7.73749 6.05313L7.77187 6.00313C8.09374 5.55313 8.71874 5.45 9.16562 5.77188C9.61249 6.09375 9.71874 6.71875 9.39687 7.16563L9.36249 7.21563C8.64687 8.21875 8.75937 9.59063 9.63124 10.4594C10.6156 11.4438 12.2094 11.4438 13.1937 10.4594L16.7031 6.95313C17.6875 5.96875 17.6875 4.375 16.7031 3.39063C15.8344 2.51875 14.4594 2.40625 13.4594 3.12188L13.4094 3.15625C12.9594 3.47813 12.3344 3.37188 12.0156 2.925C11.6969 2.47813 11.8 1.85 12.2469 1.53125L12.2969 1.49688C14.0937 0.209378 16.5562 0.415628 18.1187 1.975Z" fill="#FCFCFC"/>
<path id="Primary" d="M1.88123 14.025C0.115601 12.2594 0.115601 9.4 1.88123 7.63438L5.3906 4.125C7.15623 2.35938 10.0156 2.35938 11.7812 4.125C13.3437 5.6875 13.5469 8.15 12.2625 9.94687L12.2281 9.99687C11.9062 10.4469 11.2812 10.55 10.8344 10.2281C10.3875 9.90625 10.2812 9.28125 10.6031 8.83438L10.6375 8.78438C11.3531 7.78125 11.2406 6.40937 10.3687 5.5375C9.38435 4.55312 7.7906 4.55312 6.80623 5.5375L3.29685 9.04688C2.31248 10.0312 2.31248 11.625 3.29685 12.6094C4.16873 13.4812 5.5406 13.5938 6.5406 12.8781L6.5906 12.8438C7.0406 12.5219 7.6656 12.6281 7.98435 13.075C8.3031 13.5219 8.19998 14.15 7.7531 14.4688L7.7031 14.5031C5.90623 15.7906 3.44373 15.5844 1.88123 14.025Z" fill="#65BCFF"/>
</g>
<defs>
<clipPath id="clip0_5040_19787">
<rect width="20" height="16" fill="white"/>
</clipPath>
</defs>
</svg>
