<svg width="20" height="16" viewBox="0 0 20 16" fill="none" xmlns="http://www.w3.org/2000/svg">
<g id="photo-film-music" clip-path="url(#clip0_5040_19771)">
<path id="Secondary" d="M5 3H2C0.896875 3 0 3.89688 0 5V12C0 13.1031 0.896875 14 2 14H9.05937C9.19687 13.4312 9.55625 12.9656 9.98438 12.6438C10.1969 12.4844 10.4375 12.35 10.6906 12.25H6C5.44688 12.25 5 11.8031 5 11.25V3ZM1.75 5.25C1.75 4.975 1.975 4.75 2.25 4.75H2.75C3.025 4.75 3.25 4.975 3.25 5.25V5.75C3.25 6.025 3.025 6.25 2.75 6.25H2.25C1.975 6.25 1.75 6.025 1.75 5.75V5.25ZM2.25 7.75H2.75C3.025 7.75 3.25 7.975 3.25 8.25V8.75C3.25 9.025 3.025 9.25 2.75 9.25H2.25C1.975 9.25 1.75 9.025 1.75 8.75V8.25C1.75 7.975 1.975 7.75 2.25 7.75ZM1.75 11.25C1.75 10.975 1.975 10.75 2.25 10.75H2.75C3.025 10.75 3.25 10.975 3.25 11.25V11.75C3.25 12.025 3.025 12.25 2.75 12.25H2.25C1.975 12.25 1.75 12.025 1.75 11.75V11.25ZM20 5.75C20 5.50938 19.8844 5.28125 19.6875 5.14062C19.4906 5 19.2406 4.9625 19.0125 5.0375L13.0125 7.0375C12.7063 7.14062 12.5 7.425 12.5 7.75V9.25V13.0469C12.3406 13.0156 12.1719 13 12 13C10.8969 13 10 13.6719 10 14.5C10 15.3281 10.8969 16 12 16C13.1031 16 14 15.3281 14 14.5V9.79062L18.5 8.29062V11.0469C18.3406 11.0156 18.1719 11 18 11C16.8969 11 16 11.6719 16 12.5C16 13.3281 16.8969 14 18 14C19.1031 14 20 13.3281 20 12.5C20 12.4531 19.9969 12.4062 19.9906 12.3625C19.9969 12.325 20 12.2875 20 12.25V7.25V5.75ZM14.425 3.23438C14.3344 3.0875 14.1719 3 14 3C13.8281 3 13.6687 3.0875 13.575 3.23438L12.125 5.55937L11.6469 4.94375C11.5531 4.82187 11.4062 4.75 11.2531 4.75C11.1 4.75 10.9531 4.82187 10.8594 4.94375L9.10938 7.19375C8.99063 7.34375 8.97187 7.55 9.05625 7.72188C9.14062 7.89375 9.31563 8.00313 9.50625 8.00313H11.5063V7.75625C11.5063 7.00312 11.9875 6.33438 12.7031 6.09688L15.6125 5.12813L14.4312 3.2375L14.425 3.23438Z" fill="#FCFCFC"/>
<path id="Primary" d="M6 2C6 0.896875 6.89688 0 8 0H18C19.1031 0 20 0.896875 20 2V4.175C19.5969 3.98438 19.1281 3.95313 18.6969 4.09688L15.6062 5.12813L14.425 3.2375C14.3344 3.09063 14.1719 3.00312 14 3.00312C13.8281 3.00312 13.6687 3.09063 13.575 3.2375L12.125 5.55937L11.6469 4.94375C11.5531 4.82188 11.4062 4.75 11.2531 4.75C11.1 4.75 10.9531 4.82188 10.8594 4.94375L9.10938 7.19375C8.99062 7.34375 8.97187 7.55 9.05625 7.72188C9.14062 7.89375 9.31563 8.00313 9.50625 8.00313H11.5063V10.0031H8C6.89688 10.0031 6 9.10625 6 8.00313V2ZM10 3C10 2.73478 9.89464 2.48043 9.70711 2.29289C9.51957 2.10536 9.26522 2 9 2C8.73478 2 8.48043 2.10536 8.29289 2.29289C8.10536 2.48043 8 2.73478 8 3C8 3.26522 8.10536 3.51957 8.29289 3.70711C8.48043 3.89464 8.73478 4 9 4C9.26522 4 9.51957 3.89464 9.70711 3.70711C9.89464 3.51957 10 3.26522 10 3Z" fill="#65BCFF"/>
</g>
<defs>
<clipPath id="clip0_5040_19771">
<rect width="20" height="16" fill="white"/>
</clipPath>
</defs>
</svg>
