<svg width="24" height="24" viewBox="0 0 24 24" fill="none" xmlns="http://www.w3.org/2000/svg">
<g id="arrows-turn-to-dots">
<path id="Secondary" d="M12.2063 12.7938C11.8156 12.4031 11.1813 12.4031 10.7906 12.7938C10.4 13.1844 10.4 13.8188 10.7906 14.2094L11.5844 15H7C5.34375 15 4 16.3438 4 18V19C4 19.5531 4.44687 20 5 20C5.55313 20 6 19.5531 6 19V18C6 17.4469 6.44688 17 7 17H11.5844L10.7906 17.7938C10.4 18.1844 10.4 18.8188 10.7906 19.2094C11.1813 19.6 11.8156 19.6 12.2063 19.2094L14.7063 16.7094C15.0969 16.3188 15.0969 15.6844 14.7063 15.2938L12.2063 12.7938ZM18 18C18.5304 18 19.0391 17.7893 19.4142 17.4142C19.7893 17.0392 20 16.5304 20 16C20 15.4696 19.7893 14.9609 19.4142 14.5858C19.0391 14.2107 18.5304 14 18 14C17.4696 14 16.9609 14.2107 16.5858 14.5858C16.2107 14.9609 16 15.4696 16 16C16 16.5304 16.2107 17.0392 16.5858 17.4142C16.9609 17.7893 17.4696 18 18 18Z" fill="#FCFCFC"/>
<path id="Primary" d="M11.7937 4.79376C12.1844 4.40314 12.8188 4.40314 13.2094 4.79376C13.6 5.18439 13.6 5.81876 13.2094 6.20939L12.4156 7.00001H17C18.6562 7.00001 20 8.34376 20 10V11C20 11.5531 19.5531 12 19 12C18.4469 12 18 11.5531 18 11V10C18 9.44689 17.5531 9.00001 17 9.00001H12.4156L13.2094 9.79376C13.6 10.1844 13.6 10.8188 13.2094 11.2094C12.8188 11.6 12.1844 11.6 11.7937 11.2094L9.29375 8.70939C8.90312 8.31876 8.90312 7.68439 9.29375 7.29376L11.7937 4.79376ZM6 10C5.46957 10 4.96086 9.7893 4.58579 9.41423C4.21071 9.03915 4 8.53045 4 8.00001C4 7.46958 4.21071 6.96087 4.58579 6.5858C4.96086 6.21073 5.46957 6.00001 6 6.00001C6.53043 6.00001 7.03914 6.21073 7.41421 6.5858C7.78929 6.96087 8 7.46958 8 8.00001C8 8.53045 7.78929 9.03915 7.41421 9.41423C7.03914 9.7893 6.53043 10 6 10Z" fill="#65BCFF"/>
</g>
</svg>
