<svg width="24" height="24" viewBox="0 0 24 24" fill="none" xmlns="http://www.w3.org/2000/svg">
<g id="bullhorn">
<path id="Secondary" d="M19 5C19 4.59688 18.7563 4.23125 18.3813 4.075C18.0063 3.91875 17.5781 4.00625 17.2906 4.29063L15.9281 5.65625C14.4281 7.15625 12.3937 8 10.2719 8H10V9V10V13V14V15H10.2719C12.3937 15 14.4281 15.8438 15.9281 17.3438L17.2906 18.7063C17.5781 18.9938 18.0063 19.0781 18.3813 18.9219C18.7563 18.7656 19 18.4031 19 17.9969V5Z" fill="#A7D9FF"/>
<path id="Primary" d="M4 10C4 8.89688 4.89688 8 6 8H10V14V15V19C10 19.5531 9.55312 20 9 20H7C6.44688 20 6 19.5531 6 19V15C4.89688 15 4 14.1031 4 13V10ZM20 11.5C20 12.3719 19.5813 13.1125 19 13.3875V9.6125C19.5813 9.8875 20 10.6281 20 11.5Z" fill="#FCFCFC"/>
</g>
</svg>
