<svg width="24" height="24" viewBox="0 0 24 24" fill="none" xmlns="http://www.w3.org/2000/svg">
<g id="calendar-clock">
<path id="Secondary" d="M7 4C7.55312 4 8 4.44687 8 5V6H12V5C12 4.44687 12.4469 4 13 4C13.5531 4 14 4.44687 14 5V6H15.5C16.3281 6 17 6.67188 17 7.5V9H3V7.5C3 6.67188 3.67188 6 4.5 6H6V5C6 4.44687 6.44688 4 7 4ZM16.5 10H17V10.0219C16.8344 10.0062 16.6687 10 16.5 10ZM13.3375 20H4.5C3.67188 20 3 19.3281 3 18.5V10H16.5C13.4625 10 11 12.4625 11 15.5C11 17.3594 11.925 19.0031 13.3375 20Z" fill="#65BCFF"/>
<path id="Primary" d="M16.5 20C17.6935 20 18.8381 19.5259 19.682 18.682C20.5259 17.8381 21 16.6935 21 15.5C21 14.3065 20.5259 13.1619 19.682 12.318C18.8381 11.4741 17.6935 11 16.5 11C15.3065 11 14.1619 11.4741 13.318 12.318C12.4741 13.1619 12 14.3065 12 15.5C12 16.6935 12.4741 17.8381 13.318 18.682C14.1619 19.5259 15.3065 20 16.5 20ZM17 13.5V15H18C18.275 15 18.5 15.225 18.5 15.5C18.5 15.775 18.275 16 18 16H16.5C16.225 16 16 15.775 16 15.5V13.5C16 13.225 16.225 13 16.5 13C16.775 13 17 13.225 17 13.5Z" fill="#FCFCFC"/>
</g>
</svg>
