<svg width="24" height="24" viewBox="0 0 24 24" fill="none" xmlns="http://www.w3.org/2000/svg">
<g id="paper-plane">
<path id="Secondary" d="M19.5656 4.175C19.8813 4.39375 20.0469 4.77187 19.9875 5.15L17.9875 18.15C17.9406 18.4531 17.7563 18.7187 17.4875 18.8687C17.2188 19.0187 16.8969 19.0375 16.6125 18.9187L11 16.5844V16.1687L15.8969 9.80625C16.0594 9.59687 16.0281 9.29375 15.825 9.12187C15.6219 8.95 15.3219 8.9625 15.1375 9.15625L9.58751 14.9562L9.14689 15.3969C9.05314 15.4906 9.00001 15.6187 9.00001 15.75L8.11564 15.3812L4.61564 13.9219C4.26251 13.775 4.02501 13.4437 4.00314 13.0625C3.98126 12.6812 4.17501 12.3219 4.50626 12.1312L18.5063 4.13125C18.8406 3.94062 19.2531 3.95937 19.5688 4.175H19.5656Z" fill="#65BCFF"/>
<path id="Primary" d="M15.8969 9.80626C16.0563 9.59688 16.0281 9.30001 15.8313 9.12501C15.6344 8.95001 15.3344 8.95938 15.1469 9.14688L9.55312 14.7406L9.14687 15.1469C9.05312 15.2406 9 15.3688 9 15.5V15.75V17.5V19C9 19.4125 9.25313 19.7813 9.63438 19.9313C10.0156 20.0813 10.4531 19.9813 10.7344 19.6781L12.875 17.3656L11 16.5844V16.1688L15.8969 9.80626Z" fill="#FCFCFC"/>
</g>
</svg>
