<svg width="24" height="24" viewBox="0 0 24 24" fill="none" xmlns="http://www.w3.org/2000/svg">
<g id="sliders">
<path id="Secondary" d="M4 17C4 16.4469 4.44687 16 5 16H6.70937C6.575 16.3062 6.5 16.6438 6.5 17C6.5 17.3562 6.575 17.6938 6.70937 18H5C4.44687 18 4 17.5531 4 17ZM11.2906 18C11.425 17.6938 11.5 17.3562 11.5 17C11.5 16.6438 11.425 16.3062 11.2906 16H19C19.5531 16 20 16.4469 20 17C20 17.5531 19.5531 18 19 18H11.2906ZM4 12C4 11.4469 4.44687 11 5 11H12.7094C12.575 11.3063 12.5 11.6438 12.5 12C12.5 12.3562 12.575 12.6937 12.7094 13H5C4.44687 13 4 12.5531 4 12ZM17.2906 13C17.425 12.6937 17.5 12.3562 17.5 12C17.5 11.6438 17.425 11.3063 17.2906 11H19C19.5531 11 20 11.4469 20 12C20 12.5531 19.5531 13 19 13H17.2906ZM5 6H7.70937C7.575 6.30625 7.5 6.64375 7.5 7C7.5 7.35625 7.575 7.69375 7.70937 8H5C4.44687 8 4 7.55313 4 7C4 6.44687 4.44687 6 5 6ZM12.2906 8C12.425 7.69375 12.5 7.35625 12.5 7C12.5 6.64375 12.425 6.30625 12.2906 6H19C19.5531 6 20 6.44687 20 7C20 7.55313 19.5531 8 19 8H12.2906Z" fill="#65BCFF"/>
<path id="Primary" d="M8 17C8 16.7348 8.10536 16.4804 8.29289 16.2929C8.48043 16.1054 8.73478 16 9 16C9.26522 16 9.51957 16.1054 9.70711 16.2929C9.89464 16.4804 10 16.7348 10 17C10 17.2652 9.89464 17.5196 9.70711 17.7071C9.51957 17.8946 9.26522 18 9 18C8.73478 18 8.48043 17.8946 8.29289 17.7071C8.10536 17.5196 8 17.2652 8 17ZM11.5 17C11.5 16.337 11.2366 15.7011 10.7678 15.2322C10.2989 14.7634 9.66304 14.5 9 14.5C8.33696 14.5 7.70107 14.7634 7.23223 15.2322C6.76339 15.7011 6.5 16.337 6.5 17C6.5 17.663 6.76339 18.2989 7.23223 18.7678C7.70107 19.2366 8.33696 19.5 9 19.5C9.66304 19.5 10.2989 19.2366 10.7678 18.7678C11.2366 18.2989 11.5 17.663 11.5 17ZM14 12C14 11.7348 14.1054 11.4804 14.2929 11.2929C14.4804 11.1054 14.7348 11 15 11C15.2652 11 15.5196 11.1054 15.7071 11.2929C15.8946 11.4804 16 11.7348 16 12C16 12.2652 15.8946 12.5196 15.7071 12.7071C15.5196 12.8946 15.2652 13 15 13C14.7348 13 14.4804 12.8946 14.2929 12.7071C14.1054 12.5196 14 12.2652 14 12ZM17.5 12C17.5 11.337 17.2366 10.7011 16.7678 10.2322C16.2989 9.76339 15.663 9.5 15 9.5C14.337 9.5 13.7011 9.76339 13.2322 10.2322C12.7634 10.7011 12.5 11.337 12.5 12C12.5 12.663 12.7634 13.2989 13.2322 13.7678C13.7011 14.2366 14.337 14.5 15 14.5C15.663 14.5 16.2989 14.2366 16.7678 13.7678C17.2366 13.2989 17.5 12.663 17.5 12ZM10 8C9.73478 8 9.48043 7.89464 9.29289 7.70711C9.10536 7.51957 9 7.26522 9 7C9 6.73478 9.10536 6.48043 9.29289 6.29289C9.48043 6.10536 9.73478 6 10 6C10.2652 6 10.5196 6.10536 10.7071 6.29289C10.8946 6.48043 11 6.73478 11 7C11 7.26522 10.8946 7.51957 10.7071 7.70711C10.5196 7.89464 10.2652 8 10 8ZM10 4.5C9.33696 4.5 8.70107 4.76339 8.23223 5.23223C7.76339 5.70107 7.5 6.33696 7.5 7C7.5 7.66304 7.76339 8.29893 8.23223 8.76777C8.70107 9.23661 9.33696 9.5 10 9.5C10.663 9.5 11.2989 9.23661 11.7678 8.76777C12.2366 8.29893 12.5 7.66304 12.5 7C12.5 6.33696 12.2366 5.70107 11.7678 5.23223C11.2989 4.76339 10.663 4.5 10 4.5Z" fill="#FCFCFC"/>
</g>
</svg>
