<svg width="18" height="16" viewBox="0 0 18 16" fill="none" xmlns="http://www.w3.org/2000/svg">
<g id="phone-plus">
<path id="Secondary" d="M1 2C1 9.73125 7.26875 16 15 16C15.5625 16 16.0562 15.6219 16.2062 15.0781L16.9562 12.3281C17.1219 11.7219 16.8125 11.0875 16.2313 10.8469L13.2312 9.59688C12.7219 9.38438 12.1313 9.53125 11.7844 9.95938L10.5219 11.5C8.32188 10.4594 6.54063 8.67813 5.5 6.47813L7.04063 5.21875C7.46875 4.86875 7.61562 4.28125 7.40312 3.77187L6.15312 0.771875C5.9125 0.190625 5.27812 -0.11875 4.67188 0.046875L1.92188 0.796875C1.37813 0.94375 1 1.4375 1 2Z" fill="#65BCFF"/>
<path id="Primary" d="M13.25 4.25V6.25C13.25 6.66563 13.5844 7 14 7C14.4156 7 14.75 6.66563 14.75 6.25V4.25H16.75C17.1656 4.25 17.5 3.91563 17.5 3.5C17.5 3.08437 17.1656 2.75 16.75 2.75H14.75V0.75C14.75 0.334375 14.4156 0 14 0C13.5844 0 13.25 0.334375 13.25 0.75V2.75H11.25C10.8344 2.75 10.5 3.08437 10.5 3.5C10.5 3.91563 10.8344 4.25 11.25 4.25H13.25Z" fill="#FCFCFC"/>
</g>
</svg>
