<svg width="16" height="16" viewBox="0 0 16 16" fill="none" xmlns="http://www.w3.org/2000/svg">
<g id="thumbs-up">
<path id="Secondary" d="M5 7.72188V8.5V10V11.1969C5 12.2 5.5 13.1375 6.33437 13.6938L7.5375 14.4969C8.03125 14.825 8.60938 15 9.20312 15H12.25C13.0781 15 13.75 14.3281 13.75 13.5C13.75 13.3875 13.7375 13.2812 13.7156 13.175C14.3156 12.9781 14.75 12.4156 14.75 11.75C14.75 11.4656 14.6719 11.2 14.5344 10.9719C15.2281 10.8406 15.75 10.2312 15.75 9.5C15.75 9.02812 15.5312 8.60625 15.1906 8.33125C15.6719 8.08125 16 7.57812 16 7C16 6.17188 15.3281 5.5 14.5 5.5H10C10.4281 4.77813 10.7344 3.98438 10.9 3.15L10.9719 2.79375C11.1344 1.98125 10.6062 1.19063 9.79375 1.02813C9.69375 1.00938 9.59687 1 9.49687 1C8.79687 1 8.16875 1.49375 8.02812 2.20625L7.95625 2.5625C7.75 3.6 7.18125 4.53125 6.35625 5.19375L6.125 5.37813C5.4125 5.94688 5 6.80938 5 7.72188Z" fill="#65BCFF"/>
<path id="Primary" d="M0 7C0 6.44687 0.446875 6 1 6H3C3.55312 6 4 6.44687 4 7V14C4 14.5531 3.55312 15 3 15H1C0.446875 15 0 14.5531 0 14V7Z" fill="#FCFCFC"/>
</g>
</svg>
