<svg width="18" height="16" viewBox="0 0 18 16" fill="none" xmlns="http://www.w3.org/2000/svg">
<g id="brackets-curly" clip-path="url(#clip0_5033_8401)">
<path id="Secondary" d="M11 2C11 2.55313 11.4469 3 12 3H13C13.5531 3 14 3.44688 14 4V5.17188C14 5.96875 14.3156 6.73125 14.8781 7.29375L15.5844 8L14.8781 8.70625C14.3156 9.26875 14 10.0312 14 10.8281V12C14 12.5531 13.5531 13 13 13H12C11.4469 13 11 13.4469 11 14C11 14.5531 11.4469 15 12 15H13C14.6562 15 16 13.6562 16 12V10.8281C16 10.5625 16.1063 10.3094 16.2938 10.1219L17.7094 8.70625C17.9031 8.5125 18.0031 8.25625 18.0031 8C18.0031 7.74375 17.9063 7.4875 17.7094 7.29375L16.2938 5.87813C16.1063 5.69063 16 5.4375 16 5.17188V4C16 2.34375 14.6562 1 13 1H12C11.4469 1 11 1.44687 11 2Z" fill="#65BCFF"/>
<path id="Primary" d="M1.99995 4C1.99995 2.34375 3.3437 1 4.99995 1H5.99995C6.55308 1 6.99995 1.44687 6.99995 2C6.99995 2.55313 6.55308 3 5.99995 3H4.99995C4.44683 3 3.99995 3.44688 3.99995 4V5.17188C3.99995 5.96875 3.68433 6.73125 3.12183 7.29375L2.41558 8L3.12183 8.70625C3.68433 9.26875 3.99995 10.0312 3.99995 10.8281V12C3.99995 12.5531 4.44683 13 4.99995 13H5.99995C6.55308 13 6.99995 13.4469 6.99995 14C6.99995 14.5531 6.55308 15 5.99995 15H4.99995C3.3437 15 1.99995 13.6562 1.99995 12V10.8281C1.99995 10.5625 1.8937 10.3094 1.7062 10.1219L0.293701 8.70625C-0.0969238 8.31563 -0.0969238 7.68125 0.293701 7.29063L1.70933 5.875C1.89683 5.6875 2.00308 5.43437 2.00308 5.16875L1.99995 4Z" fill="#FCFCFC"/>
</g>
<defs>
<clipPath id="clip0_5033_8401">
<rect width="18" height="16" fill="white"/>
</clipPath>
</defs>
</svg>
