<svg width="20" height="16" viewBox="0 0 20 16" fill="none" xmlns="http://www.w3.org/2000/svg">
<g id="chart-network" clip-path="url(#clip0_5033_2251)">
<path id="Secondary" d="M3.7312 8.5001C3.89995 8.79385 3.99995 9.13447 3.99995 9.5001C3.99995 9.52197 3.99995 9.54697 3.99995 9.56885C3.99995 9.59072 3.99683 9.6126 3.99683 9.6376C3.9937 9.68135 3.99058 9.72822 3.98433 9.77197C3.97183 9.85947 3.9562 9.94697 3.9312 10.0282C3.88433 10.197 3.8187 10.3563 3.73433 10.5032H6.11245C6.5687 12.5063 8.35933 14.0032 10.5 14.0032C11.775 14.0032 12.9281 13.472 13.7468 12.6188L16 13.9657C16.0125 13.2282 16.425 12.5876 17.0281 12.2501L14.7781 10.9001C14.9218 10.4595 15 9.9876 15 9.5001C15 8.86572 14.8687 8.25947 14.6312 7.7126L17.1937 5.83135C16.5531 5.5501 16.0906 4.94072 16.0125 4.21885L13.4468 6.1001C12.6562 5.41572 11.6281 5.0001 10.5 5.0001C10.175 5.0001 9.8562 5.03447 9.54995 5.1001L8.63745 3.14697C8.27808 3.6626 7.67808 4.0001 6.99995 4.0001C6.97183 4.0001 6.94058 4.0001 6.91245 3.99697C6.88433 3.99697 6.85308 3.99385 6.82495 3.99072L7.73745 5.94385C6.9312 6.5751 6.3437 7.46885 6.11245 8.5001H3.73433H3.7312ZM12 9.5001C12 9.89792 11.8419 10.2795 11.5606 10.5608C11.2793 10.8421 10.8978 11.0001 10.5 11.0001C10.1021 11.0001 9.7206 10.8421 9.43929 10.5608C9.15799 10.2795 8.99995 9.89792 8.99995 9.5001C8.99995 9.10227 9.15799 8.72074 9.43929 8.43944C9.7206 8.15813 10.1021 8.0001 10.5 8.0001C10.8978 8.0001 11.2793 8.15813 11.5606 8.43944C11.8419 8.72074 12 9.10227 12 9.5001Z" fill="#65BCFF"/>
<path id="Primary" d="M7 4C7.53043 4 8.03914 3.78929 8.41421 3.41421C8.78929 3.03914 9 2.53043 9 2C9 1.46957 8.78929 0.960859 8.41421 0.585786C8.03914 0.210714 7.53043 0 7 0C6.46957 0 5.96086 0.210714 5.58579 0.585786C5.21071 0.960859 5 1.46957 5 2C5 2.53043 5.21071 3.03914 5.58579 3.41421C5.96086 3.78929 6.46957 4 7 4ZM18 6C18.5304 6 19.0391 5.78929 19.4142 5.41421C19.7893 5.03914 20 4.53043 20 4C20 3.46957 19.7893 2.96086 19.4142 2.58579C19.0391 2.21071 18.5304 2 18 2C17.4696 2 16.9609 2.21071 16.5858 2.58579C16.2107 2.96086 16 3.46957 16 4C16 4.53043 16.2107 5.03914 16.5858 5.41421C16.9609 5.78929 17.4696 6 18 6ZM20 14C20 13.4696 19.7893 12.9609 19.4142 12.5858C19.0391 12.2107 18.5304 12 18 12C17.4696 12 16.9609 12.2107 16.5858 12.5858C16.2107 12.9609 16 13.4696 16 14C16 14.5304 16.2107 15.0391 16.5858 15.4142C16.9609 15.7893 17.4696 16 18 16C18.5304 16 19.0391 15.7893 19.4142 15.4142C19.7893 15.0391 20 14.5304 20 14ZM2 11.5C2.53043 11.5 3.03914 11.2893 3.41421 10.9142C3.78929 10.5391 4 10.0304 4 9.5C4 8.96957 3.78929 8.46086 3.41421 8.08579C3.03914 7.71071 2.53043 7.5 2 7.5C1.46957 7.5 0.960859 7.71071 0.585786 8.08579C0.210714 8.46086 0 8.96957 0 9.5C0 10.0304 0.210714 10.5391 0.585786 10.9142C0.960859 11.2893 1.46957 11.5 2 11.5Z" fill="#FCFCFC"/>
</g>
<defs>
<clipPath id="clip0_5033_2251">
<rect width="20" height="16" fill="white"/>
</clipPath>
</defs>
</svg>
