<svg width="20" height="16" viewBox="0 0 20 16" fill="none" xmlns="http://www.w3.org/2000/svg">
<g id="key-skeleton-left-right" clip-path="url(#clip0_5033_2618)">
<path id="Secondary" d="M0 12C0 14.2094 1.79063 16 4 16C5.8625 16 7.43125 14.725 7.875 13H14C14.5531 13 15 12.5531 15 12V10C15 9.44687 14.5531 9 14 9C13.4469 9 13 9.44687 13 10V11H12V10C12 9.44687 11.5531 9 11 9C10.4469 9 10 9.44687 10 10V11H7.875C7.43125 9.275 5.86562 8 4 8C1.79063 8 0 9.79063 0 12ZM6 12C6 12.5304 5.78929 13.0391 5.41421 13.4142C5.03914 13.7893 4.53043 14 4 14C3.46957 14 2.96086 13.7893 2.58579 13.4142C2.21071 13.0391 2 12.5304 2 12C2 11.4696 2.21071 10.9609 2.58579 10.5858C2.96086 10.2107 3.46957 10 4 10C4.53043 10 5.03914 10.2107 5.41421 10.5858C5.78929 10.9609 6 11.4696 6 12Z" fill="#65BCFF"/>
<path id="Primary" d="M16 2C16.5304 2 17.0391 2.21071 17.4142 2.58579C17.7893 2.96086 18 3.46957 18 4C18 4.53043 17.7893 5.03914 17.4142 5.41421C17.0391 5.78929 16.5304 6 16 6C15.4696 6 14.9609 5.78929 14.5858 5.41421C14.2107 5.03914 14 4.53043 14 4C14 3.46957 14.2107 2.96086 14.5858 2.58579C14.9609 2.21071 15.4696 2 16 2ZM16 8C18.2094 8 20 6.20937 20 4C20 1.79063 18.2094 0 16 0C14.1375 0 12.5687 1.275 12.125 3H6C5.44687 3 5 3.44688 5 4V6C5 6.55312 5.44687 7 6 7C6.55313 7 7 6.55312 7 6V5H8V6C8 6.55312 8.44688 7 9 7C9.55312 7 10 6.55312 10 6V5H12.125C12.5687 6.725 14.1344 8 16 8Z" fill="#FCFCFC"/>
</g>
<defs>
<clipPath id="clip0_5033_2618">
<rect width="20" height="16" fill="white"/>
</clipPath>
</defs>
</svg>
