<svg width="16" height="16" viewBox="0 0 16 16" fill="none" xmlns="http://www.w3.org/2000/svg">
<g id="address-book">
<path id="Secondary" d="M1 2C1 0.896875 1.89688 0 3 0H12C13.1031 0 14 0.896875 14 2V14C14 15.1031 13.1031 16 12 16H3C1.89688 16 1 15.1031 1 14V2ZM4 11.5C4 11.775 4.225 12 4.5 12H10.5C10.775 12 11 11.775 11 11.5C11 10.1187 9.88125 9 8.5 9H6.5C5.11875 9 4 10.1187 4 11.5ZM7.5 8C8.03043 8 8.53914 7.78929 8.91421 7.41421C9.28929 7.03914 9.5 6.53043 9.5 6C9.5 5.46957 9.28929 4.96086 8.91421 4.58579C8.53914 4.21071 8.03043 4 7.5 4C6.96957 4 6.46086 4.21071 6.08579 4.58579C5.71071 4.96086 5.5 5.46957 5.5 6C5.5 6.53043 5.71071 7.03914 6.08579 7.41421C6.46086 7.78929 6.96957 8 7.5 8Z" fill="#65BCFF"/>
<path id="Primary" d="M15.5 2C15.775 2 16 2.225 16 2.5V4.5C16 4.775 15.775 5 15.5 5C15.225 5 15 4.775 15 4.5V2.5C15 2.225 15.225 2 15.5 2ZM15.5 6C15.775 6 16 6.225 16 6.5V8.5C16 8.775 15.775 9 15.5 9C15.225 9 15 8.775 15 8.5V6.5C15 6.225 15.225 6 15.5 6ZM16 10.5V12.5C16 12.775 15.775 13 15.5 13C15.225 13 15 12.775 15 12.5V10.5C15 10.225 15.225 10 15.5 10C15.775 10 16 10.225 16 10.5ZM4 11.5C4 10.1187 5.11875 9 6.5 9H8.5C9.88125 9 11 10.1187 11 11.5C11 11.775 10.775 12 10.5 12H4.5C4.225 12 4 11.775 4 11.5ZM7.5 4C8.03043 4 8.53914 4.21071 8.91421 4.58579C9.28929 4.96086 9.5 5.46957 9.5 6C9.5 6.53043 9.28929 7.03914 8.91421 7.41421C8.53914 7.78929 8.03043 8 7.5 8C6.96957 8 6.46086 7.78929 6.08579 7.41421C5.71071 7.03914 5.5 6.53043 5.5 6C5.5 5.46957 5.71071 4.96086 6.08579 4.58579C6.46086 4.21071 6.96957 4 7.5 4Z" fill="#FCFCFC"/>
</g>
</svg>
