<svg width="32" height="32" viewBox="0 0 32 32" fill="none" xmlns="http://www.w3.org/2000/svg">
<g id="bell">
<path id="Secondary" d="M15.9998 0C14.8935 0 13.9998 0.89375 13.9998 2V3.2C9.43728 4.125 5.99978 8.1625 5.99978 13V14.175C5.99978 17.1125 4.91853 19.95 2.96853 22.15L2.50603 22.6688C1.98103 23.2563 1.85603 24.1 2.17478 24.8188C2.49353 25.5375 3.21228 26 3.99978 26H27.9998C28.7873 26 29.4998 25.5375 29.8248 24.8188C30.1498 24.1 30.0185 23.2563 29.4935 22.6688L29.031 22.15C27.081 19.95 25.9998 17.1187 25.9998 14.175V13C25.9998 8.1625 22.5623 4.125 17.9998 3.2V2C17.9998 0.89375 17.106 0 15.9998 0Z" fill="#4E9EDA"/>
<path id="Primary" d="M20 28C20 29.0625 19.5812 30.0812 18.8312 30.8312C18.0812 31.5812 17.0625 32 16 32C14.9375 32 13.9187 31.5812 13.1687 30.8312C12.4187 30.0812 12 29.0625 12 28H16H20Z" fill="#FCFCFC"/>
</g>
</svg>
