<svg width="21" height="17" viewBox="0 0 21 17" fill="none" xmlns="http://www.w3.org/2000/svg">
<g id="code" clip-path="url(#clip0_5003_17091)">
<path id="Secondary" d="M12.6041 0.242454C12.0728 0.0893288 11.5197 0.398704 11.3666 0.929954L7.36658 14.93C7.21346 15.4612 7.52283 16.0143 8.05408 16.1675C8.58533 16.3206 9.13846 16.0112 9.29158 15.48L13.2916 1.47995C13.4447 0.948704 13.1353 0.395579 12.6041 0.242454Z" fill="#65BCFF"/>
<path id="Primary" d="M15.1228 3.9987C14.7322 4.38933 14.7322 5.0237 15.1228 5.41433L17.9134 8.20495L15.1197 10.9987C14.7291 11.3893 14.7291 12.0237 15.1197 12.4143C15.5103 12.805 16.1447 12.805 16.5353 12.4143L20.0353 8.91433C20.4259 8.5237 20.4259 7.88933 20.0353 7.4987L16.5353 3.9987C16.1447 3.60808 15.5103 3.60808 15.1197 3.9987H15.1228ZM5.53843 3.9987C5.1478 3.60808 4.51343 3.60808 4.1228 3.9987L0.622803 7.4987C0.232178 7.88933 0.232178 8.5237 0.622803 8.91433L4.1228 12.4143C4.51343 12.805 5.1478 12.805 5.53843 12.4143C5.92905 12.0237 5.92905 11.3893 5.53843 10.9987L2.74468 8.20495L5.53843 5.4112C5.92905 5.02058 5.92905 4.3862 5.53843 3.99558V3.9987Z" fill="#FCFCFC"/>
</g>
<defs>
<clipPath id="clip0_5003_17091">
<rect width="20" height="16" fill="white" transform="translate(0.329102 0.204956)"/>
</clipPath>
</defs>
</svg>
