<svg width="16" height="16" viewBox="0 0 16 16" fill="none" xmlns="http://www.w3.org/2000/svg">
<g id="coins" clip-path="url(#clip0_5034_19453)">
<path id="Secondary" d="M16 2.5C16 3.0625 15.5531 3.58125 14.8 4C13.8906 4.50313 12.5344 4.85938 10.9781 4.96562C10.8625 4.90937 10.7469 4.85625 10.625 4.80937C9.39375 4.29375 7.75625 4 6 4C5.74063 4 5.4875 4.00625 5.23438 4.01875C5.22187 4.0125 5.2125 4.00625 5.2 4C4.44687 3.58125 4 3.0625 4 2.5C4 1.11875 6.6875 0 10 0C13.3125 0 16 1.11875 16 2.5ZM13 10.6656V8.69063C13.5938 8.55937 14.1406 8.39375 14.6281 8.19063C15.1375 7.97813 15.6125 7.71563 16 7.39375V8.5C16 9.425 14.7937 10.2344 13 10.6656ZM13 7.66563V7.5C13 6.81563 12.6687 6.25313 12.2469 5.83125C13.1312 5.69375 13.9406 5.475 14.6281 5.19063C15.1375 4.97813 15.6125 4.71563 16 4.39375V5.5C16 6.0625 15.5531 6.58125 14.8 7C14.7438 7.03125 14.6875 7.05937 14.6281 7.09062C14.1719 7.32187 13.6219 7.51562 12.9969 7.66563H13Z" fill="#FCFCFC"/>
<path id="Primary" d="M12 7.5C12 8.0625 11.5531 8.58125 10.8 9C9.70625 9.60625 7.9625 10 6 10C4.1375 10 2.47187 9.64687 1.36875 9.09062C1.30937 9.0625 1.25312 9.03125 1.19687 9C0.446875 8.58125 0 8.0625 0 7.5C0 6.11875 2.6875 5 6 5C9.3125 5 12 6.11875 12 7.5ZM6 11C7.75625 11 9.39375 10.7063 10.6281 10.1906C11.1375 9.97813 11.6125 9.71563 12 9.39375V10.5C12 11.0625 11.5531 11.5813 10.8 12C10.7438 12.0312 10.6875 12.0594 10.6281 12.0906C9.52812 12.6469 7.8625 13 6 13C4.0375 13 2.29375 12.6062 1.2 12C0.446875 11.5813 0 11.0625 0 10.5V9.39375C0.390625 9.71563 0.8625 9.97813 1.37188 10.1906C2.60625 10.7063 4.24375 11 6 11ZM10.6281 13.1906C11.1375 12.9781 11.6125 12.7156 12 12.3938V13.5C12 14.8813 9.3125 16 6 16C2.6875 16 0 14.8813 0 13.5V12.3938C0.390625 12.7156 0.8625 12.9781 1.37188 13.1906C2.60625 13.7063 4.24375 14 6 14C7.75625 14 9.39375 13.7063 10.6281 13.1906Z" fill="#65BCFF"/>
</g>
<defs>
<clipPath id="clip0_5034_19453">
<rect width="16" height="16" fill="white"/>
</clipPath>
</defs>
</svg>
