<svg width="20" height="16" viewBox="0 0 20 16" fill="none" xmlns="http://www.w3.org/2000/svg">
<g id="comments" clip-path="url(#clip0_5003_17107)">
<path id="Secondary" d="M7.23438 11.9688C10.9031 11.6531 14 9.00938 14 5.5C14 5.3375 13.9937 5.175 13.9812 5.01562C17.3469 5.22187 20 7.6 20 10.5C20 11.7063 19.5406 12.8219 18.7625 13.7312C18.8719 14.025 19.0344 14.2844 19.2062 14.5031C19.3562 14.6969 19.5094 14.8469 19.6219 14.95C19.6781 15 19.725 15.0406 19.7563 15.0656C19.7719 15.0781 19.7844 15.0875 19.7906 15.0906L19.7969 15.0969C19.9719 15.225 20.0437 15.45 19.9781 15.6562C19.9125 15.8625 19.7187 16.0031 19.5031 16.0031C18.8219 16.0031 18.1344 15.8281 17.5625 15.6125C17.275 15.5031 17.0062 15.3813 16.775 15.2563C15.8094 15.7281 14.6937 16 13.5 16C10.5125 16 7.99375 14.2937 7.23438 11.9688Z" fill="#65BCFF"/>
<path id="Primary" d="M13 5.5C13 8.5375 10.0906 11 6.5 11C5.30625 11 4.19063 10.7281 3.22813 10.2531C2.99375 10.3781 2.72813 10.5 2.4375 10.6094C1.86875 10.825 1.18125 11 0.5 11C0.284375 11 0.090625 10.8594 0.025 10.6531C-0.040625 10.4469 0.03125 10.2219 0.20625 10.0938L0.2125 10.0875C0.21875 10.0812 0.23125 10.075 0.246875 10.0625C0.278125 10.0375 0.325 10 0.38125 9.94687C0.49375 9.84375 0.646875 9.69375 0.796875 9.5C0.96875 9.28125 1.13125 9.01875 1.24063 8.72812C0.459375 7.82187 0 6.70625 0 5.5C0 2.4625 2.90937 0 6.5 0C10.0906 0 13 2.4625 13 5.5Z" fill="#FCFCFC"/>
</g>
<defs>
<clipPath id="clip0_5003_17107">
<rect width="20" height="16" fill="white"/>
</clipPath>
</defs>
</svg>
