<svg width="17" height="23" viewBox="0 0 17 23" fill="none" xmlns="http://www.w3.org/2000/svg">
<g id="file-chart-column" clip-path="url(#clip0_5003_17185)">
<path id="Secondary" d="M0.71167 3.5994C0.71167 2.09363 1.9359 0.8694 3.44167 0.8694H10.2667V6.3294C10.2667 7.08442 10.8767 7.6944 11.6317 7.6944H17.0917V19.9794C17.0917 21.4852 15.8674 22.7094 14.3617 22.7094H3.44167C1.9359 22.7094 0.71167 21.4852 0.71167 19.9794V3.5994ZM9.92542 11.4481C9.92542 10.8808 9.469 10.4244 8.90167 10.4244C8.33434 10.4244 7.87792 10.8808 7.87792 11.4481V18.9557C7.87792 19.523 8.33434 19.9794 8.90167 19.9794C9.469 19.9794 9.92542 19.523 9.92542 18.9557V11.4481ZM13.6792 14.1782C13.6792 13.6108 13.2227 13.1544 12.6554 13.1544C12.0881 13.1544 11.6317 13.6108 11.6317 14.1782V18.9557C11.6317 19.523 12.0881 19.9794 12.6554 19.9794C13.2227 19.9794 13.6792 19.523 13.6792 18.9557V14.1782ZM6.17167 16.9081C6.17167 16.3408 5.71525 15.8844 5.14792 15.8844C4.58059 15.8844 4.12417 16.3408 4.12417 16.9081V18.9557C4.12417 19.523 4.58059 19.9794 5.14792 19.9794C5.71525 19.9794 6.17167 19.523 6.17167 18.9557V16.9081Z" fill="#65BCFF"/>
<path id="Primary" d="M17.0915 7.6944L10.2665 0.8694V6.3294C10.2665 7.08442 10.8765 7.6944 11.6315 7.6944H17.0915ZM9.92527 11.4481C9.92527 10.8808 9.46885 10.4244 8.90152 10.4244C8.3342 10.4244 7.87777 10.8808 7.87777 11.4481V18.9557C7.87777 19.523 8.3342 19.9794 8.90152 19.9794C9.46885 19.9794 9.92527 19.523 9.92527 18.9557V11.4481ZM13.679 14.1782C13.679 13.6108 13.2226 13.1544 12.6553 13.1544C12.0879 13.1544 11.6315 13.6108 11.6315 14.1782V18.9557C11.6315 19.523 12.0879 19.9794 12.6553 19.9794C13.2226 19.9794 13.679 19.523 13.679 18.9557V14.1782ZM6.17152 16.9081C6.17152 16.3408 5.7151 15.8844 5.14777 15.8844C4.58045 15.8844 4.12402 16.3408 4.12402 16.9081V18.9557C4.12402 19.523 4.58045 19.9794 5.14777 19.9794C5.7151 19.9794 6.17152 19.523 6.17152 18.9557V16.9081Z" fill="#FCFCFC"/>
</g>
<defs>
<clipPath id="clip0_5003_17185">
<rect width="16" height="21.3333" fill="white" transform="translate(0.711914 0.869385)"/>
</clipPath>
</defs>
</svg>
