<svg width="24" height="24" viewBox="0 0 24 24" fill="none" xmlns="http://www.w3.org/2000/svg">
<g id="gauge">
<path id="Secondary" d="M4 12C4 14.1217 4.84285 16.1566 6.34315 17.6569C7.84344 19.1571 9.87827 20 12 20C14.1217 20 16.1566 19.1571 17.6569 17.6569C19.1571 16.1566 20 14.1217 20 12C20 9.87827 19.1571 7.84344 17.6569 6.34315C16.1566 4.84285 14.1217 4 12 4C9.87827 4 7.84344 4.84285 6.34315 6.34315C4.84285 7.84344 4 9.87827 4 12ZM8 12C8 12.2652 7.89464 12.5196 7.70711 12.7071C7.51957 12.8946 7.26522 13 7 13C6.73478 13 6.48043 12.8946 6.29289 12.7071C6.10536 12.5196 6 12.2652 6 12C6 11.7348 6.10536 11.4804 6.29289 11.2929C6.48043 11.1054 6.73478 11 7 11C7.26522 11 7.51957 11.1054 7.70711 11.2929C7.89464 11.4804 8 11.7348 8 12ZM9.5 8.5C9.5 8.76522 9.39464 9.01957 9.20711 9.20711C9.01957 9.39464 8.76522 9.5 8.5 9.5C8.23478 9.5 7.98043 9.39464 7.79289 9.20711C7.60536 9.01957 7.5 8.76522 7.5 8.5C7.5 8.23478 7.60536 7.98043 7.79289 7.79289C7.98043 7.60536 8.23478 7.5 8.5 7.5C8.76522 7.5 9.01957 7.60536 9.20711 7.79289C9.39464 7.98043 9.5 8.23478 9.5 8.5ZM10 15C10 14.1594 10.5156 13.4406 11.25 13.1469V6.75C11.25 6.33437 11.5844 6 12 6C12.4156 6 12.75 6.33437 12.75 6.75V13.1469C13.4844 13.4438 14 14.1625 14 15C14 16.1031 13.1031 17 12 17C10.8969 17 10 16.1031 10 15ZM16.5 8.5C16.5 8.76522 16.3946 9.01957 16.2071 9.20711C16.0196 9.39464 15.7652 9.5 15.5 9.5C15.2348 9.5 14.9804 9.39464 14.7929 9.20711C14.6054 9.01957 14.5 8.76522 14.5 8.5C14.5 8.23478 14.6054 7.98043 14.7929 7.79289C14.9804 7.60536 15.2348 7.5 15.5 7.5C15.7652 7.5 16.0196 7.60536 16.2071 7.79289C16.3946 7.98043 16.5 8.23478 16.5 8.5ZM18 12C18 12.2652 17.8946 12.5196 17.7071 12.7071C17.5196 12.8946 17.2652 13 17 13C16.7348 13 16.4804 12.8946 16.2929 12.7071C16.1054 12.5196 16 12.2652 16 12C16 11.7348 16.1054 11.4804 16.2929 11.2929C16.4804 11.1054 16.7348 11 17 11C17.2652 11 17.5196 11.1054 17.7071 11.2929C17.8946 11.4804 18 11.7348 18 12Z" fill="#65BCFF"/>
<path id="Primary" d="M12.75 6.75C12.75 6.33437 12.4156 6 12 6C11.5844 6 11.25 6.33437 11.25 6.75V13.1469C10.5156 13.4438 10 14.1625 10 15C10 16.1031 10.8969 17 12 17C13.1031 17 14 16.1031 14 15C14 14.1594 13.4844 13.4406 12.75 13.1469V6.75Z" fill="white"/>
</g>
</svg>
