<svg width="32" height="32" viewBox="0 0 32 32" fill="none" xmlns="http://www.w3.org/2000/svg">
<g id="globe" clip-path="url(#clip0_3337_11792)">
<path id="Secondary" d="M22 16C22 17.3813 21.925 18.725 21.7938 20H10.2063C10.0688 18.725 10 17.3813 10 16C10 14.6187 10.075 13.275 10.2063 12H21.7938C21.9313 13.275 22 14.6187 22 16ZM23.8 12H31.4937C31.825 13.2812 32 14.6187 32 16C32 17.3813 31.825 18.7188 31.4937 20H23.8C23.9312 18.7125 24 17.375 24 16C24 14.625 23.9312 13.2875 23.8 12ZM30.8375 10H23.5438C22.9313 6.04375 21.7188 2.70625 20.1562 0.54375C25.0187 1.85 28.9688 5.3875 30.8375 10ZM21.5187 10H10.4812C10.8625 7.70625 11.45 5.675 12.175 4.03125C12.8313 2.54375 13.5625 1.45625 14.275 0.775C14.7 0.36875 15.075 0.1375 15.4062 0.0125C15.6062 0.00625 15.8 0 16 0C16.2 0 16.3937 0.00625 16.5938 0.0125C16.925 0.13125 17.3062 0.36875 17.725 0.775C18.4375 1.45625 19.1688 2.54375 19.825 4.03125C20.55 5.675 21.1375 7.70625 21.5187 10ZM8.45 10H1.1625C3.03125 5.39375 6.975 1.85 11.8438 0.54375C10.2812 2.70625 9.06875 6.04375 8.45625 10H8.45ZM0.50625 12H8.2C8.06875 13.2875 8 14.625 8 16C8 17.375 8.06875 18.7125 8.2 20H0.50625C0.175 18.7188 0 17.3813 0 16C0 14.6187 0.175 13.2812 0.50625 12ZM12.175 27.9688C11.45 26.325 10.8625 24.2938 10.4812 22H21.5187C21.1375 24.2938 20.55 26.325 19.825 27.9688C19.1688 29.4562 18.4375 30.5438 17.725 31.225C17.3 31.6313 16.925 31.8625 16.5938 31.9875C16.3937 31.9937 16.2 32 16 32C15.8 32 15.6062 31.9937 15.4062 31.9875C15.075 31.8687 14.6937 31.6313 14.275 31.225C13.5625 30.5438 12.8313 29.4562 12.175 27.9688ZM8.45625 22C9.075 25.9562 10.2812 29.2937 11.8438 31.4562C6.975 30.15 3.03125 26.6063 1.1625 22H8.45625ZM30.8375 22C28.975 26.6063 25.025 30.15 20.1562 31.4562C21.7188 29.2937 22.9313 25.9562 23.5438 22H30.8375Z" fill="#4E9EDA"/>
<path id="Primary" d="M21.5188 22C21.1376 24.2938 20.5501 26.325 19.8251 27.9688C19.1688 29.4563 18.4376 30.5438 17.7251 31.225C17.3001 31.6313 16.9251 31.8625 16.5938 31.9875C17.8251 31.9438 19.0126 31.7625 20.1563 31.45C21.7188 29.2875 22.9251 25.95 23.5438 21.9938H30.8376C31.1001 21.35 31.3188 20.6813 31.4938 19.9938H23.8001C23.9313 18.7063 24.0001 17.3688 24.0001 15.9938C24.0001 14.6188 23.9313 13.2813 23.8001 11.9938H31.4938C31.3188 11.3063 31.0938 10.6375 30.8376 9.99376H23.5438C22.9313 6.04376 21.7188 2.70626 20.1563 0.543756C19.0126 0.237506 17.8188 0.0562561 16.5938 0.0062561C16.9251 0.125006 17.3063 0.362506 17.7251 0.768756C18.4376 1.45001 19.1688 2.53751 19.8251 4.02501C20.5501 5.66876 21.1376 7.70001 21.5188 9.99376H10.4813C10.8626 7.70001 11.4501 5.66876 12.1751 4.02501C12.8313 2.53751 13.5626 1.45001 14.2751 0.768756C14.7001 0.362506 15.0751 0.131256 15.4063 0.0062561C14.1751 0.0500061 12.9876 0.231256 11.8438 0.543756C10.2813 2.70626 9.06885 6.04376 8.45635 10H1.1626C0.900098 10.6438 0.681348 11.3125 0.506348 12H8.2001C8.06885 13.2875 8.0001 14.625 8.0001 16C8.0001 17.375 8.06885 18.7125 8.2001 20H0.506348C0.681348 20.6875 0.906348 21.3563 1.1626 22H8.45635C9.0751 25.9563 10.2813 29.2938 11.8438 31.4563C12.9876 31.7625 14.1813 31.9438 15.4063 31.9938C15.0751 31.875 14.6938 31.6375 14.2751 31.2313C13.5626 30.55 12.8313 29.4625 12.1751 27.975C11.4501 26.3313 10.8626 24.3 10.4813 22.0063H21.5188V22ZM22.0001 16C22.0001 17.3813 21.9251 18.725 21.7938 20H10.2063C10.0688 18.725 10.0001 17.3813 10.0001 16C10.0001 14.6188 10.0751 13.275 10.2063 12H21.7938C21.9313 13.275 22.0001 14.6188 22.0001 16Z" fill="#FCFCFC"/>
</g>
<defs>
<clipPath id="clip0_3337_11792">
<rect width="32" height="32" fill="white"/>
</clipPath>
</defs>
</svg>
