<svg width="14" height="16" viewBox="0 0 14 16" fill="none" xmlns="http://www.w3.org/2000/svg">
<g id="hashtag">
<path id="Secondary" d="M6.48747 2.16563C6.5781 1.62188 6.20935 1.10625 5.6656 1.01563C5.12185 0.925 4.60622 1.29375 4.5156 1.8375L4.1531 4H6.18122L6.48747 2.16563ZM5.84685 6H3.81872L2.51247 13.8344C2.42185 14.3781 2.7906 14.8938 3.33435 14.9844C3.8781 15.075 4.39372 14.7063 4.48435 14.1625L5.84685 6ZM11.4875 2.16563C11.5781 1.62188 11.2093 1.10625 10.6656 1.01563C10.1218 0.925 9.60622 1.29375 9.5156 1.8375L8.1531 10H10.1812L11.4875 2.16563ZM9.84685 12H7.81872L7.51247 13.8344C7.42185 14.3781 7.7906 14.8938 8.33435 14.9844C8.8781 15.075 9.39372 14.7063 9.48435 14.1625L9.84685 12Z" fill="#65BCFF"/>
<path id="Primary" d="M9.15312 4H2C1.44687 4 1 4.44687 1 5C1 5.55313 1.44687 6 2 6H8.81875L9.15312 4ZM10.8469 6H13C13.5531 6 14 5.55313 14 5C14 4.44687 13.5531 4 13 4H11.1812L10.8469 6ZM4.84688 12H12C12.5531 12 13 11.5531 13 11C13 10.4469 12.5531 10 12 10H5.18125L4.84688 12ZM3.15313 10H1C0.446875 10 0 10.4469 0 11C0 11.5531 0.446875 12 1 12H2.81875L3.15313 10Z" fill="#FCFCFC"/>
</g>
</svg>
