<svg width="24" height="24" viewBox="0 0 24 24" fill="none" xmlns="http://www.w3.org/2000/svg">
<g id="house">
<path id="Secondary" d="M5 12.4531L5.00312 18.75C5.00312 19.4406 5.5625 20 6.25312 20H8.75C9.44063 20 10 19.4406 10 18.75V15.9906C10 15.4375 10.4469 14.9906 11 14.9906H13C13.5531 14.9906 14 15.4375 14 15.9906V18.75C14 19.4406 14.5594 20 15.25 20H17.7656C18.4563 20 19.0156 19.4375 19.0156 18.7469L19.0031 12.4563L12 6.32812L5 12.4531Z" fill="#65BCFF"/>
<path id="Primary" d="M11.3406 4.24689C11.7188 3.91876 12.2813 3.91876 12.6594 4.24689L20.6594 11.2469C21.075 11.6094 21.1156 12.2438 20.7531 12.6594C20.3906 13.075 19.7563 13.1156 19.3406 12.7531L12 6.32814L4.65939 12.7531C4.24377 13.1156 3.61252 13.075 3.24689 12.6594C2.88127 12.2438 2.92502 11.6125 3.34064 11.2469L11.3406 4.24689Z" fill="white"/>
</g>
</svg>
