<svg width="24" height="20" viewBox="0 0 24 20" fill="none" xmlns="http://www.w3.org/2000/svg">
<g clip-path="url(#clip0_3337_11785)">
<path d="M8.19589e-08 16.5625L1.22938e-06 3.4375C1.2748e-06 2.91797 0.41797 2.5 0.937501 2.5C1.45703 2.5 1.875 2.91797 1.875 3.4375L1.875 16.5625C1.875 17.082 1.45703 17.5 0.9375 17.5C0.417969 17.5 3.654e-08 17.082 8.19589e-08 16.5625ZM5.27344 10.6641C4.90625 10.2969 4.90625 9.70312 5.27344 9.33984L10.5859 4.02344C10.9531 3.65625 11.5469 3.65625 11.9102 4.02344C12.2734 4.39062 12.2773 4.98437 11.9102 5.34766L8.19922 9.05859L24.0625 9.0625C24.582 9.0625 25 9.48047 25 10C25 10.5195 24.582 10.9375 24.0625 10.9375L8.19922 10.9375L11.9102 14.6484C12.2773 15.0156 12.2773 15.6094 11.9102 15.9727C11.543 16.3359 10.9492 16.3398 10.5859 15.9727L5.27344 10.6641Z" fill="#FCFCFC"/>
</g>
<defs>
<clipPath id="clip0_3337_11785">
<rect width="24" height="20" fill="white" transform="translate(24 20) rotate(-180)"/>
</clipPath>
</defs>
</svg>
