<svg width="16" height="16" viewBox="0 0 16 16" fill="none" xmlns="http://www.w3.org/2000/svg">
<g id="bullseye-arrow" clip-path="url(#clip0_6827_15675)">
<path id="Secondary" d="M0 8C0 12.4187 3.58125 16 8 16C12.4187 16 16 12.4187 16 8C16 7.075 15.8438 6.1875 15.5531 5.35938L14.2063 6.70625L13.9156 6.99687C13.9719 7.32187 14 7.65625 14 8C14 11.3125 11.3125 14 8 14C4.6875 14 2 11.3125 2 8C2 4.6875 4.6875 2 8 2C8.34062 2 8.675 2.02812 9.00313 2.08437L9.29375 1.79375L10.6406 0.446875C9.8125 0.15625 8.925 0 8 0C3.58125 0 0 3.58125 0 8ZM3.5 8C3.5 10.4844 5.51562 12.5 8 12.5C10.4844 12.5 12.5 10.4844 12.5 8C12.5 7.59062 12.4469 7.19688 12.3438 6.82188L11.45 6.67188L10.475 7.64687C10.4906 7.7625 10.5 7.88125 10.5 8C10.5 9.38125 9.38125 10.5 8 10.5C6.61875 10.5 5.5 9.38125 5.5 8C5.5 6.61875 6.61875 5.5 8 5.5C8.11875 5.5 8.2375 5.50938 8.35312 5.525L9.32812 4.55L9.17813 3.65625C8.80313 3.55312 8.40625 3.5 8 3.5C5.51562 3.5 3.5 5.51562 3.5 8Z" fill="#A7D9FF"/>
<path id="Primary" d="M10.35 4.59059L10.0875 3.00621C10.0343 2.68746 10.1375 2.36246 10.3656 2.13434L11.9656 0.534338C12.2187 0.281213 12.6468 0.371838 12.7812 0.703088L13.5 2.49996L15.2968 3.21871C15.6312 3.35309 15.7187 3.78121 15.4656 4.03746L13.8656 5.63746C13.6375 5.86559 13.3125 5.96871 12.9937 5.91559L11.4093 5.65309L8.5312 8.53121C8.23745 8.82496 7.76245 8.82496 7.47183 8.53121C7.1812 8.23746 7.17808 7.76246 7.47183 7.47184L10.35 4.59371V4.59059Z" fill="#FCFCFC"/>
</g>
<defs>
<clipPath id="clip0_6827_15675">
<rect width="16" height="16" fill="white"/>
</clipPath>
</defs>
</svg>
