<svg width="16" height="16" viewBox="0 0 16 16" fill="none" xmlns="http://www.w3.org/2000/svg">
<g id="screwdriver-wrench" clip-path="url(#clip0_5003_17003)">
<path id="Secondary" d="M5.2625 7.7375L0.621875 12.3781C0.225 12.775 0 13.3156 0 13.8781C0 15.05 0.95 16 2.12188 16C2.68438 16 3.225 15.775 3.62188 15.3781L7.30312 11.6969C7.05937 11.0437 7.02188 10.3344 7.19063 9.6625L5.2625 7.73438V7.7375ZM13.4062 8.57812C14.9375 7.85938 16 6.30312 16 4.5C16 4.17188 15.9656 3.85313 15.9 3.54688C15.825 3.19688 15.3969 3.10625 15.1438 3.35938L13.1469 5.35625C13.0531 5.45 12.925 5.50313 12.7937 5.50313H11C10.725 5.50313 10.5 5.27813 10.5 5.00313V3.20625C10.5 3.075 10.5531 2.94688 10.6469 2.85313L12.6438 0.85625C12.8969 0.603125 12.8063 0.175 12.4563 0.1C12.1469 0.034375 11.8281 0 11.5 0C9.01562 0 7 2.01562 7 4.5C7 4.50938 7 4.51562 7 4.525L9.66562 7.19063C10.7906 6.90625 12.0344 7.20625 12.9156 8.0875L13.4062 8.57812ZM2.5 12.75C2.69891 12.75 2.88968 12.829 3.03033 12.9697C3.17098 13.1103 3.25 13.3011 3.25 13.5C3.25 13.6989 3.17098 13.8897 3.03033 14.0303C2.88968 14.171 2.69891 14.25 2.5 14.25C2.30109 14.25 2.11032 14.171 1.96967 14.0303C1.82902 13.8897 1.75 13.6989 1.75 13.5C1.75 13.3011 1.82902 13.1103 1.96967 12.9697C2.11032 12.829 2.30109 12.75 2.5 12.75Z" fill="#65BCFF"/>
<path id="Primary" d="M1.46864 0.218751C1.73426 -0.0468744 2.15614 -0.0749995 2.45614 0.153126L5.70614 2.65313C5.89051 2.79375 5.99989 3.01563 5.99989 3.24688V4.9375L9.40614 8.34375C10.3124 7.88438 11.4499 8.03125 12.2061 8.79063L15.7061 12.2906C16.0968 12.6813 16.0968 13.3156 15.7061 13.7063L13.7061 15.7063C13.3155 16.0969 12.6811 16.0969 12.2905 15.7063L8.79051 12.2063C8.03426 11.45 7.88426 10.3125 8.34364 9.40625L4.93739 6H3.24989C3.01551 6 2.79676 5.89063 2.65614 5.70625L0.156137 2.45625C-0.0751126 2.15938 -0.0469876 1.7375 0.218637 1.46875L1.46864 0.218751Z" fill="#FCFCFC"/>
</g>
<defs>
<clipPath id="clip0_5003_17003">
<rect width="16" height="16" fill="white"/>
</clipPath>
</defs>
</svg>
